<svg width="16" height="16" viewBox="0 0 38 41" fill="none" xmlns="http://www.w3.org/2000/svg">
<path d="M19.0001 0.722229C8.73111 0.722229 0.687012 5.34091 0.687012 11.2369V29.9297C0.687012 35.8258 8.73111 40.4445 19.0001 40.4445C29.269 40.4445 37.3131 35.8258 37.3131 29.9297V11.2369C37.3131 5.34091 29.269 0.722229 19.0001 0.722229ZM19.0001 3.05883C27.6598 3.05883 34.9753 6.80323 34.9753 11.2369C34.9753 15.6706 27.6598 19.415 19.0001 19.415C10.3403 19.415 3.02485 15.6706 3.02485 11.2369C3.02485 6.80323 10.3403 3.05883 19.0001 3.05883ZM34.9753 29.9297C34.9753 34.3634 27.6598 38.1079 19.0001 38.1079C10.3403 38.1079 3.02485 34.3634 3.02485 29.9297V25.7998C6.14196 28.9873 12.0586 31.098 19.0001 31.098C25.9415 31.098 31.8582 28.9873 34.9753 25.7998V29.9297ZM34.9753 20.5833C34.9753 25.017 27.6598 28.7614 19.0001 28.7614C10.3403 28.7614 3.02485 25.017 3.02485 20.5833V16.4534C6.14196 19.6409 12.0586 21.7516 19.0001 21.7516C25.9415 21.7516 31.8582 19.6409 34.9753 16.4534V20.5833Z" fill="white"/>
</svg>
