<svg width="24" height="24" viewBox="0 0 16 14" fill="none" xmlns="http://www.w3.org/2000/svg">
<path d="M11.9094 7.54545L7.87742 12.5855C7.66797 12.8473 7.34997 13 7.01451 13C6.40415 13 5.90942 12.5053 5.90942 11.8949L5.90942 8.63636H2.6356C1.5496 8.63636 0.765787 7.59564 1.0636 6.55055L2.42179 1.79145C2.55542 1.32291 2.98306 1 3.46961 1L10.2731 1L11.9094 2.09091L11.9094 7.54545ZM11.9094 7.54545H11.9089" stroke="black" stroke-miterlimit="10" stroke-linecap="round" stroke-linejoin="round"/>
<path d="M11.9094 8.63647H15.1821L15.1821 1.00011H11.9094V8.63647Z" stroke="black" stroke-miterlimit="10" stroke-linecap="round" stroke-linejoin="round"/>
<path d="M13.5459 2.63639C13.2446 2.63639 13.0004 2.88059 13.0004 3.18184C13.0004 3.48309 13.2446 3.72729 13.5459 3.72729C13.8471 3.72729 14.0913 3.48309 14.0913 3.18184C14.0913 2.88059 13.8471 2.63639 13.5459 2.63639Z" fill="#007EC5"/>
</svg>
