<svg width="16" height="16" viewBox="0 0 17 18" fill="none" xmlns="http://www.w3.org/2000/svg">
<path d="M16.774 3.66404L12.9103 0.2025C12.8385 0.13823 12.7533 0.0872668 12.6595 0.0525212C12.5657 0.0177756 12.4651 -7.12979e-05 12.3636 2.1406e-07H4.63636C4.22648 2.1406e-07 3.83339 0.145879 3.54356 0.405545C3.25373 0.66521 3.09091 1.01739 3.09091 1.38462V2.76923H1.54545C1.13557 2.76923 0.742482 2.91511 0.452653 3.17478C0.162824 3.43444 0 3.78662 0 4.15385V16.6154C0 16.9826 0.162824 17.3348 0.452653 17.5945C0.742482 17.8541 1.13557 18 1.54545 18H12.3636C12.7735 18 13.1666 17.8541 13.4564 17.5945C13.7463 17.3348 13.9091 16.9826 13.9091 16.6154V15.2308H15.4545C15.8644 15.2308 16.2575 15.0849 16.5473 14.8252C16.8372 14.5656 17 14.2134 17 13.8462V4.15385C17.0001 4.0629 16.9802 3.97284 16.9414 3.8888C16.9026 3.80475 16.8457 3.72838 16.774 3.66404ZM12.3636 16.6154H1.54545V4.15385H8.95301L12.3636 7.20952V16.6154ZM15.4545 13.8462H13.9091V6.92308C13.9092 6.83214 13.8893 6.74207 13.8505 6.65803C13.8117 6.57398 13.7548 6.49761 13.6831 6.43327L9.81943 2.97173C9.74762 2.90746 9.66237 2.8565 9.56857 2.82175C9.47476 2.78701 9.37423 2.76916 9.27273 2.76923H4.63636V1.38462H12.0439L15.4545 4.44029V13.8462ZM10.0455 11.0769C10.0455 11.2605 9.96404 11.4366 9.81913 11.5665C9.67421 11.6963 9.47767 11.7692 9.27273 11.7692H4.63636C4.43142 11.7692 4.23488 11.6963 4.08996 11.5665C3.94505 11.4366 3.86364 11.2605 3.86364 11.0769C3.86364 10.8933 3.94505 10.7172 4.08996 10.5874C4.23488 10.4576 4.43142 10.3846 4.63636 10.3846H9.27273C9.47767 10.3846 9.67421 10.4576 9.81913 10.5874C9.96404 10.7172 10.0455 10.8933 10.0455 11.0769ZM10.0455 13.8462C10.0455 14.0298 9.96404 14.2059 9.81913 14.3357C9.67421 14.4655 9.47767 14.5385 9.27273 14.5385H4.63636C4.43142 14.5385 4.23488 14.4655 4.08996 14.3357C3.94505 14.2059 3.86364 14.0298 3.86364 13.8462C3.86364 13.6625 3.94505 13.4865 4.08996 13.3566C4.23488 13.2268 4.43142 13.1538 4.63636 13.1538H9.27273C9.47767 13.1538 9.67421 13.2268 9.81913 13.3566C9.96404 13.4865 10.0455 13.6625 10.0455 13.8462Z" fill="white"/>
</svg>
