<svg width="16" height="16" viewBox="0 0 42 41" fill="none" xmlns="http://www.w3.org/2000/svg">
  <g clip-path="url(#clip0_1285_67)">
    <path
      d="M22.5269 2.5789V5.67336H24.9894C25.7494 5.67336 26.4969 5.87141 27.1569 6.24522L30.3819 8.06723C30.4769 8.1217 30.5819 8.14893 30.6919 8.14893H36.2769C36.7741 8.14893 37.2511 8.34454 37.6027 8.69273C37.9543 9.04093 38.1519 9.51318 38.1519 10.0056C38.1519 10.498 37.9543 10.9703 37.6027 11.3185C37.2511 11.6667 36.7741 11.8623 36.2769 11.8623H35.2094L40.4869 23.4776C40.6428 23.8213 40.6895 24.2038 40.6207 24.5743C40.552 24.9448 40.371 25.2859 40.1019 25.5522L38.7769 24.2401L40.0994 25.5546L40.0969 25.5596L40.0919 25.5645L40.0769 25.5794L40.0619 25.5918L40.0369 25.6165L39.9244 25.7155C39.3994 26.1512 38.8219 26.5251 38.2094 26.8295C37.0419 27.4088 35.3519 27.9535 33.1519 27.9535C31.4006 27.9739 29.6688 27.5891 28.0944 26.8295C27.4811 26.5252 26.9056 26.1514 26.3794 25.7155L26.2669 25.6165L26.2269 25.5794L26.2119 25.5645L26.2019 25.5546V25.5522C25.9327 25.2859 25.7517 24.9448 25.683 24.5743C25.6142 24.2038 25.6609 23.8213 25.8169 23.4776L31.0969 11.8623H30.6919C29.9294 11.8623 29.1819 11.6667 28.5219 11.2904L25.2969 9.4684C25.2027 9.41438 25.0957 9.38619 24.9869 9.38671H22.5269V32.9046H28.7769C29.2741 32.9046 29.7511 33.1002 30.1027 33.4484C30.4543 33.7966 30.6519 34.2688 30.6519 34.7613C30.6519 35.2537 30.4543 35.7259 30.1027 36.0741C29.7511 36.4223 29.2741 36.6179 28.7769 36.6179H12.5269C12.0296 36.6179 11.5527 36.4223 11.201 36.0741C10.8494 35.7259 10.6519 35.2537 10.6519 34.7613C10.6519 34.2688 10.8494 33.7966 11.201 33.4484C11.5527 33.1002 12.0296 32.9046 12.5269 32.9046H18.7769V9.38671H16.3169C16.208 9.38619 16.101 9.41438 16.0069 9.4684L12.7844 11.2929C12.1219 11.6642 11.3744 11.8623 10.6119 11.8623H10.2069L15.4869 23.4776C15.6428 23.8213 15.6895 24.2038 15.6207 24.5743C15.552 24.9448 15.371 25.2859 15.1019 25.5522L13.7769 24.2401L15.0994 25.5546L15.0969 25.5596L15.0919 25.5645L15.0769 25.5794L15.0369 25.6165L14.9244 25.7155C14.3994 26.1512 13.8219 26.5251 13.2094 26.8295C12.0419 27.4088 10.3519 27.9535 8.15187 27.9535C6.40065 27.9739 4.66881 27.5891 3.09437 26.8295C2.48107 26.5252 1.90555 26.1514 1.37937 25.7155L1.26687 25.6165L1.22687 25.5794L1.21187 25.5645L1.20187 25.5546V25.5522C0.932721 25.2859 0.751748 24.9448 0.682982 24.5743C0.614216 24.2038 0.660911 23.8213 0.816866 23.4776L6.09687 11.8623H5.02687C4.52958 11.8623 4.05267 11.6667 3.70104 11.3185C3.34941 10.9703 3.15187 10.498 3.15187 10.0056C3.15187 9.51318 3.34941 9.04093 3.70104 8.69273C4.05267 8.34454 4.52958 8.14893 5.02687 8.14893H10.6119C10.7215 8.14942 10.8293 8.12123 10.9244 8.06723L14.1444 6.24274C14.8069 5.87141 15.5544 5.67336 16.3169 5.67336H18.7769V2.5789C18.7769 2.08648 18.9744 1.61423 19.326 1.26604C19.6777 0.917842 20.1546 0.722229 20.6519 0.722229C21.1491 0.722229 21.6261 0.917842 21.9777 1.26604C22.3293 1.61423 22.5269 2.08648 22.5269 2.5789ZM29.8894 23.5643C30.6019 23.8985 31.6844 24.2401 33.1519 24.2401C34.6194 24.2401 35.7019 23.8985 36.4144 23.5643L33.1519 16.3851L29.8894 23.5643ZM4.88937 23.5643C5.60187 23.8985 6.68436 24.2401 8.15187 24.2401C9.61936 24.2401 10.7019 23.8985 11.4144 23.5643L8.15187 16.3851L4.88937 23.5643Z"
      fill="white" />
  </g>
  <defs>
    <clipPath id="clip0_1285_67">
      <rect width="40.6957" height="39.6091" fill="white" transform="translate(0.6521 0.722229)" />
    </clipPath>
  </defs>
</svg>