<svg width="24" height="24" viewBox="0 0 16 14" fill="none" xmlns="http://www.w3.org/2000/svg">
<path d="M4.27271 6.45455L8.30471 1.41455C8.51416 1.15273 8.83216 1 9.16761 1C9.77798 1 10.2727 1.49473 10.2727 2.10509V5.36364H13.5465C14.6325 5.36364 15.4163 6.40436 15.1185 7.44945L13.7603 12.2085C13.6267 12.6771 13.1991 13 12.7125 13H5.90907L4.27271 11.9091V6.45455ZM4.27271 6.45455H4.27325" stroke="black" stroke-miterlimit="10" stroke-linecap="round" stroke-linejoin="round"/>
<path d="M4.27273 5.36353H1V12.9999H4.27273V5.36353Z" stroke="black" stroke-miterlimit="10" stroke-linecap="round" stroke-linejoin="round"/>
<path d="M2.63627 11.3636C2.93752 11.3636 3.18173 11.1194 3.18173 10.8182C3.18173 10.5169 2.93752 10.2727 2.63627 10.2727C2.33503 10.2727 2.09082 10.5169 2.09082 10.8182C2.09082 11.1194 2.33503 11.3636 2.63627 11.3636Z" fill="#007EC5"/>
</svg>
