<svg width="15" height="14" viewBox="0 0 17 14" fill="none" xmlns="http://www.w3.org/2000/svg">
  <path
    d="M0.54174 14C0.465755 14.0005 0.390532 13.9848 0.321017 13.9541C0.251502 13.9235 0.189269 13.8784 0.138408 13.8219C0.0875475 13.7655 0.0492114 13.6989 0.0259199 13.6266C0.00262837 13.5543 -0.00509113 13.4778 0.00326882 13.4023L0.417892 9.63299C0.432651 9.51252 0.487679 9.40057 0.574048 9.31529L9.38344 0.505904C9.54349 0.345534 9.73359 0.218303 9.94287 0.131493C10.1522 0.0446837 10.3765 0 10.6031 0C10.8296 0 11.054 0.0446837 11.2633 0.131493C11.4726 0.218303 11.6627 0.345534 11.8227 0.505904L13.4974 2.18055C13.6577 2.3406 13.785 2.53071 13.8718 2.73999C13.9586 2.94927 14.0033 3.17361 14.0033 3.40019C14.0033 3.62676 13.9586 3.8511 13.8718 4.06039C13.785 4.26967 13.6577 4.45977 13.4974 4.61982L4.69335 13.4238C4.60808 13.5102 4.49613 13.5652 4.37565 13.58L0.606356 13.9946L0.54174 14ZM1.47329 9.93453L1.15021 12.853L4.06873 12.53L12.7381 3.86058C12.7984 3.80055 12.8461 3.72922 12.8788 3.65067C12.9114 3.57213 12.9282 3.48792 12.9282 3.40288C12.9282 3.31783 12.9114 3.23363 12.8788 3.15508C12.8461 3.07654 12.7984 3.00521 12.7381 2.94518L11.0581 1.26515C10.9981 1.20491 10.9267 1.15711 10.8482 1.1245C10.7696 1.09188 10.6854 1.0751 10.6004 1.0751C10.5153 1.0751 10.4311 1.09188 10.3526 1.1245C10.274 1.15711 10.2027 1.20491 10.1427 1.26515L1.47329 9.93453Z"
    fill="white" />
  <path
    d="M11.8499 6.03599C11.779 6.0364 11.7088 6.02282 11.6432 5.99602C11.5776 5.96923 11.5179 5.92974 11.4676 5.87984L8.12369 2.52516C8.07349 2.47496 8.03366 2.41535 8.00649 2.34975C7.97932 2.28416 7.96533 2.21385 7.96533 2.14285C7.96533 2.07184 7.97932 2.00154 8.00649 1.93594C8.03366 1.87034 8.07349 1.81074 8.12369 1.76053C8.1739 1.71033 8.2335 1.6705 8.2991 1.64333C8.3647 1.61616 8.435 1.60217 8.50601 1.60217C8.57701 1.60217 8.64732 1.61616 8.71291 1.64333C8.77851 1.6705 8.83811 1.71033 8.88832 1.76053L12.243 5.11521C12.2935 5.16527 12.3335 5.22482 12.3609 5.29044C12.3882 5.35606 12.4023 5.42644 12.4023 5.49752C12.4023 5.56861 12.3882 5.63899 12.3609 5.70461C12.3335 5.77022 12.2935 5.82978 12.243 5.87984C12.1914 5.93105 12.13 5.97129 12.0624 5.99813C11.9949 6.02496 11.9226 6.03784 11.8499 6.03599Z"
    fill="white" />
  <path d="M8.12621 5.1172L3.93408 9.30933L4.6956 10.0708L8.88773 5.87871L8.12621 5.1172Z"
    fill="white" />
  <path
    d="M15.6189 13.9998H7.00331C6.8605 13.9998 6.72354 13.9431 6.62256 13.8421C6.52158 13.7411 6.46484 13.6041 6.46484 13.4613C6.46484 13.3185 6.52158 13.1815 6.62256 13.0806C6.72354 12.9796 6.8605 12.9229 7.00331 12.9229H15.6189C15.7617 12.9229 15.8986 12.9796 15.9996 13.0806C16.1006 13.1815 16.1573 13.3185 16.1573 13.4613C16.1573 13.6041 16.1006 13.7411 15.9996 13.8421C15.8986 13.9431 15.7617 13.9998 15.6189 13.9998Z"
    fill="white" />
</svg>