<svg width="13" height="14" viewBox="0 0 13 14" fill="none" xmlns="http://www.w3.org/2000/svg">
<path d="M7 0H5.83333C5.3692 0 4.92408 0.184374 4.5959 0.512563C4.26771 0.840752 4.08333 1.28587 4.08333 1.75V2.33333H0.583333C0.428624 2.33333 0.280251 2.39479 0.170854 2.50419C0.0614581 2.61358 0 2.76196 0 2.91667C0 3.07138 0.0614581 3.21975 0.170854 3.32915C0.280251 3.43854 0.428624 3.5 0.583333 3.5H1.16667V11.6667C1.16667 12.2855 1.4125 12.879 1.85008 13.3166C2.28767 13.7542 2.88116 14 3.5 14H9.33333C9.95217 14 10.5457 13.7542 10.9832 13.3166C11.4208 12.879 11.6667 12.2855 11.6667 11.6667V3.5H12.25C12.4047 3.5 12.5531 3.43854 12.6625 3.32915C12.7719 3.21975 12.8333 3.07138 12.8333 2.91667C12.8333 2.76196 12.7719 2.61358 12.6625 2.50419C12.5531 2.39479 12.4047 2.33333 12.25 2.33333H8.75V1.75C8.75 1.28587 8.56563 0.840752 8.23744 0.512563C7.90925 0.184374 7.46413 0 7 0ZM5.25 1.75C5.25 1.59529 5.31146 1.44692 5.42085 1.33752C5.53025 1.22812 5.67862 1.16667 5.83333 1.16667H7C7.15471 1.16667 7.30308 1.22812 7.41248 1.33752C7.52187 1.44692 7.58333 1.59529 7.58333 1.75V2.33333H5.25V1.75ZM10.5 11.6667C10.5 11.9761 10.3771 12.2728 10.1583 12.4916C9.9395 12.7104 9.64275 12.8333 9.33333 12.8333H3.5C3.19058 12.8333 2.89383 12.7104 2.67504 12.4916C2.45625 12.2728 2.33333 11.9761 2.33333 11.6667V3.5H10.5V11.6667Z" fill="#232323"/>
<path d="M6.41683 5.25C6.26212 5.25 6.11375 5.31146 6.00435 5.42085C5.89495 5.53025 5.8335 5.67862 5.8335 5.83333V10.5C5.8335 10.6547 5.89495 10.8031 6.00435 10.9125C6.11375 11.0219 6.26212 11.0833 6.41683 11.0833C6.57154 11.0833 6.71991 11.0219 6.82931 10.9125C6.9387 10.8031 7.00016 10.6547 7.00016 10.5V5.83333C7.00016 5.67862 6.9387 5.53025 6.82931 5.42085C6.71991 5.31146 6.57154 5.25 6.41683 5.25Z" fill="#232323"/>
<path d="M8.1665 10.5C8.1665 10.6547 8.22796 10.8031 8.33736 10.9125C8.44675 11.0219 8.59513 11.0833 8.74984 11.0833C8.90455 11.0833 9.05292 11.0219 9.16232 10.9125C9.27171 10.8031 9.33317 10.6547 9.33317 10.5V5.83333C9.33317 5.67862 9.27171 5.53025 9.16232 5.42085C9.05292 5.31146 8.90455 5.25 8.74984 5.25C8.59513 5.25 8.44675 5.31146 8.33736 5.42085C8.22796 5.53025 8.1665 5.67862 8.1665 5.83333V10.5Z" fill="#232323"/>
<path d="M4.08333 5.25C3.92862 5.25 3.78025 5.31146 3.67085 5.42085C3.56146 5.53025 3.5 5.67862 3.5 5.83333V10.5C3.5 10.6547 3.56146 10.8031 3.67085 10.9125C3.78025 11.0219 3.92862 11.0833 4.08333 11.0833C4.23804 11.0833 4.38642 11.0219 4.49581 10.9125C4.60521 10.8031 4.66667 10.6547 4.66667 10.5V5.83333C4.66667 5.67862 4.60521 5.53025 4.49581 5.42085C4.38642 5.31146 4.23804 5.25 4.08333 5.25Z" fill="#232323"/>
</svg>
