<svg width="41" height="40" viewBox="0 0 41 40" fill="none" xmlns="http://www.w3.org/2000/svg">
  <g clip-path="url(#clip0_413_1094)">
    <path
      d="M13.5747 31.2933C13.3404 31.0678 13.1736 30.7814 13.093 30.4663C13.0124 30.1512 13.0212 29.8199 13.1184 29.5095L15.2589 22.3302C15.3299 22.113 15.4829 21.9321 15.6855 21.8263C15.888 21.7204 16.1239 21.698 16.3427 21.7638C16.5615 21.8296 16.7459 21.9784 16.8565 22.1784C16.9671 22.3784 16.995 22.6137 16.9344 22.834L14.7938 30.0133L36.6485 19.6825L14.6307 9.63953L17.5283 18.9303L27.8233 18.8322C28.0563 18.83 28.2807 18.9204 28.447 19.0836C28.6133 19.2468 28.708 19.4694 28.7102 19.7024C28.7124 19.9354 28.622 20.1597 28.4588 20.3261C28.2956 20.4924 28.073 20.5871 27.84 20.5893L16.8954 20.6873C16.7091 20.6892 16.527 20.6316 16.3758 20.5229C16.2245 20.4141 16.1119 20.26 16.0543 20.0828L12.9348 10.2311C12.8115 9.90068 12.7909 9.54069 12.8757 9.19835C12.9605 8.856 13.1468 8.54728 13.4102 8.31265C13.6735 8.07802 14.0016 7.92844 14.3514 7.88351C14.7012 7.83858 15.0565 7.9004 15.3705 8.06086L37.3628 18.0174C37.6864 18.1455 37.9645 18.3671 38.1615 18.654C38.3585 18.9409 38.4655 19.28 38.4689 19.628C38.4722 19.976 38.3717 20.3171 38.1801 20.6077C37.9886 20.8983 37.7148 21.1252 37.3937 21.2594L15.595 31.633C15.284 31.7871 14.9342 31.8453 14.59 31.8001C14.2458 31.7549 13.9228 31.6084 13.6621 31.3791L13.5747 31.2933Z"
      fill="#7b76ba" />
  </g>
  <defs>
    <clipPath id="clip0_413_1094">
      <rect width="28" height="28" fill="white" transform="translate(20.4109) rotate(44.4543)" />
    </clipPath>
  </defs>
</svg>