<svg width="150" height="30" viewBox="0 0 184 44" fill="none" xmlns="http://www.w3.org/2000/svg">
<path d="M37.2638 33.129L28.088 27.8282C26.7989 27.086 25.1505 27.5274 24.4044 28.8165C24.1153 29.3243 24.002 29.8829 24.0567 30.4258V40.7852C24.0567 42.2657 25.2598 43.4688 26.7442 43.4688C28.2247 43.4688 29.4278 42.2657 29.4278 40.7852V34.8282L34.5684 37.7969C35.8575 38.543 37.5098 38.0977 38.252 36.8086C38.9981 35.5196 38.5567 33.8711 37.2638 33.129Z" fill="#29B5E8"/>
<path d="M14.4434 21.7695C14.4591 20.8125 13.9552 19.9219 13.127 19.4414L3.95125 14.1445C3.55281 13.9141 3.09578 13.793 2.63875 13.793C1.69734 13.793 0.82234 14.2969 0.35359 15.1094C-0.372973 16.3672 0.0606215 17.9805 1.31843 18.707L6.6075 21.7578L1.31843 24.8125C0.709059 25.1641 0.271558 25.7305 0.0918715 26.4102C-0.0917225 27.0898 0.00202751 27.8008 0.35359 28.4102C0.82234 29.2227 1.69734 29.7266 2.63484 29.7266C3.09578 29.7266 3.55281 29.6055 3.95125 29.375L13.127 24.0781C13.9473 23.6016 14.4512 22.7188 14.4434 21.7695Z" fill="#29B5E8"/>
<path d="M6.03328 10.3906L15.2091 15.6875C16.2794 16.3086 17.5997 16.1055 18.4434 15.2812C18.9786 14.7891 19.3106 14.0859 19.3106 13.3047V2.6875C19.3106 1.20312 18.1075 0 16.627 0C15.1427 0 13.9395 1.20312 13.9395 2.6875V8.73047L8.7286 5.72266C7.43953 4.97656 5.7911 5.41797 5.045 6.70703C4.29891 7.99609 4.74422 9.64453 6.03328 10.3906Z" fill="#29B5E8"/>
<path d="M26.6661 22.1992C26.6661 22.4023 26.5489 22.6836 26.4044 22.832L22.7677 26.4688C22.6231 26.6133 22.338 26.7305 22.1348 26.7305H21.2091C21.0059 26.7305 20.7208 26.6133 20.5762 26.4688L16.9356 22.832C16.7911 22.6836 16.6739 22.4023 16.6739 22.1992V21.2734C16.6739 21.0664 16.7911 20.7852 16.9356 20.6406L20.5762 17C20.7208 16.8555 21.0059 16.7383 21.2091 16.7383H22.1348C22.338 16.7383 22.6231 16.8555 22.7677 17L26.4044 20.6406C26.5489 20.7852 26.6661 21.0664 26.6661 21.2734V22.1992ZM23.42 21.7539V21.7148C23.42 21.5664 23.3341 21.3594 23.2286 21.25L22.1544 20.1797C22.0489 20.0703 21.8419 19.9844 21.6895 19.9844H21.6505C21.502 19.9844 21.295 20.0703 21.1856 20.1797L20.1153 21.25C20.0098 21.3555 19.9239 21.5625 19.9239 21.7148V21.7539C19.9239 21.9063 20.0098 22.1133 20.1153 22.2188L21.1856 23.293C21.295 23.3984 21.502 23.4844 21.6505 23.4844H21.6895C21.8419 23.4844 22.0489 23.3984 22.1544 23.293L23.2286 22.2188C23.3341 22.1133 23.42 21.9063 23.42 21.7539Z" fill="#29B5E8"/>
<path d="M28.088 15.6875L37.2637 10.3906C38.5528 9.64844 38.9981 7.99609 38.252 6.70703C37.5059 5.41797 35.8575 4.97656 34.5684 5.72266L29.4278 8.69141V2.6875C29.4278 1.20312 28.2247 0 26.7442 0C25.2598 0 24.0567 1.20312 24.0567 2.6875V13.0938C24.0059 13.6328 24.1114 14.1953 24.4044 14.7031C25.1505 15.9922 26.7989 16.4336 28.088 15.6875Z" fill="#29B5E8"/>
<path d="M17.0489 27.5156C16.4395 27.3984 15.7872 27.496 15.2091 27.8281L6.03328 33.1288C4.74422 33.871 4.29891 35.5195 5.045 36.8085C5.7911 38.1015 7.43953 38.5429 8.7286 37.7968L13.9395 34.789V40.7851C13.9395 42.2656 15.1427 43.4687 16.627 43.4687C18.1075 43.4687 19.3106 42.2656 19.3106 40.7851V30.1679C19.3106 28.8281 18.3302 27.7187 17.0489 27.5156Z" fill="#29B5E8"/>
<path d="M42.9981 15.0781C42.2559 13.7851 40.6036 13.3437 39.3145 14.0898L30.1387 19.3867C29.2598 19.8945 28.7755 20.8242 28.7911 21.7695C28.7833 22.7109 29.2677 23.6289 30.1387 24.1289L39.3145 29.4296C40.6036 30.1718 42.252 29.7304 42.9981 28.4414C43.7442 27.1523 43.2989 25.5039 42.0098 24.7578L36.8145 21.7578L42.0098 18.7578C43.3028 18.0156 43.7442 16.3671 42.9981 15.0781Z" fill="#29B5E8"/>
<path d="M183.998 21.1367V21.1406V21.2383C183.998 21.7383 183.58 22.1094 183.065 22.1094H170.174C170.197 22.4141 170.236 22.7109 170.299 23.0039C170.897 25.7969 173.287 27.875 176.127 27.8984C176.135 27.8984 176.279 27.8984 176.502 27.8984C176.537 27.8984 176.572 27.8984 176.607 27.8984H176.877C176.936 27.8984 176.994 27.8984 177.057 27.8945C177.111 27.8945 177.166 27.8906 177.221 27.8867C177.225 27.8867 177.229 27.8867 177.232 27.8828C178.174 27.8086 179.123 27.4297 179.971 26.8203C179.971 26.8203 179.971 26.8203 179.975 26.8203C180.018 26.7891 180.065 26.7539 180.107 26.7188C180.115 26.7148 180.123 26.707 180.135 26.6992C180.17 26.6719 180.209 26.6406 180.248 26.6094C180.264 26.5977 180.275 26.5859 180.291 26.5742C180.322 26.5508 180.354 26.5234 180.385 26.4961C180.404 26.4805 180.428 26.4609 180.447 26.4453C180.471 26.4219 180.494 26.3984 180.522 26.3789C180.545 26.3555 180.572 26.332 180.596 26.3086C180.615 26.293 180.635 26.2734 180.654 26.2539C180.686 26.2266 180.713 26.1992 180.744 26.1719C180.76 26.1562 180.775 26.1367 180.791 26.1211C180.822 26.0898 180.854 26.0586 180.885 26.0273C180.9 26.0117 180.912 26 180.928 25.9844C180.959 25.9492 180.99 25.9141 181.022 25.8789C181.037 25.8672 181.049 25.8516 181.061 25.8359C181.096 25.8008 181.127 25.7656 181.158 25.7305C181.17 25.7148 181.186 25.6992 181.197 25.6836C181.229 25.6445 181.256 25.6094 181.287 25.5742C181.303 25.5547 181.318 25.5352 181.334 25.5156C181.361 25.4805 181.389 25.4492 181.412 25.418C181.436 25.3867 181.455 25.3594 181.475 25.332C181.494 25.3047 181.514 25.2812 181.533 25.2539C181.565 25.2109 181.596 25.168 181.623 25.125C181.635 25.1094 181.643 25.0977 181.65 25.0859C181.729 24.9727 181.803 24.8555 181.877 24.7344C181.877 24.7344 181.877 24.7305 181.881 24.7266C181.897 24.6992 181.916 24.6758 181.936 24.6484C181.943 24.6367 181.951 24.625 181.963 24.6172C181.975 24.5977 181.99 24.5859 182.002 24.5703C182.014 24.5586 182.025 24.5469 182.037 24.5352C182.053 24.5234 182.065 24.5117 182.08 24.5C182.092 24.4883 182.104 24.4766 182.119 24.4688C182.139 24.4531 182.162 24.4375 182.186 24.4258C182.201 24.4141 182.221 24.4023 182.236 24.3945C182.256 24.3867 182.272 24.3789 182.287 24.3711C182.303 24.3633 182.318 24.3594 182.33 24.3516C182.354 24.3438 182.373 24.3398 182.397 24.332C182.408 24.3281 182.416 24.3242 182.428 24.3203C182.502 24.3047 182.58 24.293 182.654 24.293C182.736 24.293 182.822 24.3047 182.9 24.3281C182.904 24.3281 182.904 24.3281 182.908 24.3281C182.94 24.3398 182.975 24.3477 183.006 24.3633C183.014 24.3672 183.022 24.3672 183.029 24.3711C183.065 24.3867 183.096 24.4023 183.127 24.4219L183.143 24.4297C183.572 24.7422 183.705 25.2891 183.443 25.7383L183.44 25.7422C183.408 25.793 183.377 25.8438 183.346 25.8906C183.338 25.9023 183.33 25.9141 183.322 25.9258C182.408 27.3164 181.166 28.4258 179.779 29.0898C179.748 29.1016 179.721 29.1172 179.69 29.1328C179.686 29.1328 179.678 29.1367 179.674 29.1367C179.033 29.4336 178.346 29.6406 177.611 29.7266C177.596 29.7266 177.58 29.7305 177.565 29.7305C177.502 29.7383 177.44 29.7461 177.377 29.75C177.342 29.75 177.307 29.7539 177.268 29.7578C177.225 29.7578 177.178 29.7617 177.135 29.7656C177.049 29.7656 176.963 29.7695 176.877 29.7695C176.865 29.7695 176.541 29.7695 176.322 29.7695C176.197 29.7695 176.127 29.7695 176.119 29.7695C171.783 29.7383 168.291 26.1211 168.291 21.6914C168.291 17.1875 171.807 13.5508 176.178 13.5508C176.307 13.5508 176.436 13.5547 176.565 13.5586C178.088 13.6367 179.494 14.1562 180.662 15.0078C180.666 15.0117 180.67 15.0156 180.674 15.0156C180.74 15.0625 180.803 15.1133 180.865 15.1602C180.897 15.1875 180.932 15.2148 180.967 15.2422C180.998 15.2656 181.029 15.293 181.061 15.3164C182.705 16.6875 183.815 18.7461 183.998 21.1289V21.1367ZM170.299 20.2695H181.967C181.389 17.457 178.971 15.4219 176.178 15.4219C173.334 15.4219 170.936 17.418 170.299 20.2695Z" fill="#29B5E8"/>
<path d="M151.041 13.8242C151.186 13.9687 151.283 14.1641 151.307 14.3906C151.307 14.4219 151.311 14.4531 151.311 14.4844V28.832C151.311 29.3438 150.881 29.7695 150.373 29.7695C149.865 29.7695 149.44 29.3438 149.44 28.832V26.9258C149.084 27.3555 148.693 27.7461 148.268 28.0859C148.256 28.0977 148.244 28.1055 148.232 28.1172C148.193 28.1484 148.15 28.1797 148.111 28.207C146.822 29.1992 145.256 29.7695 143.619 29.7695C140.982 29.7695 138.662 28.3672 137.279 26.2422C137.268 26.2266 137.252 26.207 137.24 26.1914C137.201 26.125 137.162 26.0586 137.119 25.9883C137.092 25.9453 137.068 25.9023 137.041 25.8594C137.014 25.8164 136.99 25.7695 136.967 25.7227C136.928 25.6562 136.889 25.5859 136.854 25.5195C136.842 25.4961 136.834 25.4727 136.822 25.4492C136.311 24.4336 135.994 23.2891 135.94 22.0742C135.932 21.9375 135.928 21.8008 135.928 21.6602C135.928 21.5195 135.932 21.3828 135.94 21.2461C135.994 20.0312 136.311 18.8867 136.822 17.8672C136.834 17.8477 136.842 17.8242 136.854 17.8008C136.889 17.7344 136.928 17.6641 136.967 17.5977C136.99 17.5508 137.014 17.5039 137.041 17.4609C137.065 17.418 137.092 17.375 137.119 17.332C137.158 17.2656 137.201 17.1953 137.24 17.1289C137.252 17.1133 137.268 17.0938 137.279 17.0781C138.662 14.9531 140.982 13.5508 143.619 13.5508C145.4 13.5508 147.084 14.2031 148.424 15.3398C148.791 15.6484 149.131 15.9883 149.44 16.3633V14.4844C149.44 14.4531 149.44 14.4219 149.443 14.3906C149.467 14.1641 149.565 13.9687 149.709 13.8242C149.709 13.8242 149.709 13.8242 149.709 13.8203C149.725 13.8047 149.744 13.793 149.76 13.7773C149.764 13.7734 149.772 13.7656 149.775 13.7617C149.787 13.75 149.803 13.7422 149.815 13.7344C149.826 13.7266 149.838 13.7148 149.85 13.707C149.857 13.7031 149.865 13.6992 149.873 13.6914C149.893 13.6836 149.908 13.6719 149.928 13.6602C149.932 13.6602 149.936 13.6562 149.94 13.6562C149.963 13.6445 149.986 13.6328 150.01 13.6211C150.01 13.6211 150.01 13.6211 150.014 13.6211C150.068 13.5977 150.127 13.582 150.186 13.5703C150.19 13.5703 150.197 13.5664 150.201 13.5664C150.225 13.5625 150.252 13.5586 150.279 13.5547C150.311 13.5547 150.342 13.5508 150.373 13.5508C150.408 13.5508 150.44 13.5547 150.471 13.5547C150.498 13.5586 150.522 13.5625 150.549 13.5664C150.553 13.5664 150.557 13.5703 150.565 13.5703C150.623 13.582 150.682 13.5977 150.736 13.6211H150.74C150.764 13.6328 150.787 13.6445 150.807 13.6562C150.815 13.6562 150.818 13.6602 150.822 13.6602C150.838 13.6719 150.857 13.6836 150.873 13.6914C150.881 13.6992 150.893 13.7031 150.9 13.707C150.912 13.7148 150.924 13.7266 150.936 13.7344C150.947 13.7422 150.959 13.75 150.971 13.7617C150.979 13.7656 150.982 13.7734 150.99 13.7773C151.006 13.793 151.025 13.8047 151.037 13.8203C151.041 13.8242 151.041 13.8242 151.041 13.8242ZM143.619 27.8984C146.826 27.8984 149.44 25.1016 149.44 21.6602C149.44 18.2031 146.826 15.3906 143.619 15.3906C140.436 15.3906 137.799 18.1992 137.799 21.6602C137.799 21.7695 137.803 21.875 137.807 21.9805C137.807 22.0273 137.815 22.0703 137.815 22.1133C137.818 22.1758 137.822 22.2383 137.83 22.2969C137.834 22.3477 137.842 22.3945 137.846 22.4414C137.854 22.4961 137.857 22.5547 137.865 22.6094C137.873 22.6523 137.881 22.6914 137.885 22.7305C137.897 22.793 137.904 22.8555 137.916 22.918C137.924 22.9492 137.932 22.9766 137.936 23.0039C137.951 23.0781 137.967 23.1484 137.982 23.2227C137.986 23.2383 137.99 23.2539 137.998 23.2695C138.662 25.9414 140.943 27.8984 143.619 27.8984Z" fill="#29B5E8"/>
<path d="M127.561 6.78516H127.307C127.275 6.78516 127.24 6.78516 127.209 6.78906C127.174 6.78516 127.143 6.78516 127.107 6.78516C127.018 6.78516 126.928 6.78516 126.838 6.78906C126.822 6.78906 126.803 6.79297 126.787 6.79297C126.717 6.79297 126.647 6.79688 126.576 6.80469C126.565 6.80469 126.549 6.80469 126.537 6.80469C126.463 6.8125 126.393 6.81641 126.322 6.82422C126.315 6.82813 126.307 6.82813 126.299 6.82813C126.221 6.83984 126.147 6.84766 126.076 6.85938C126.072 6.85938 126.068 6.85938 126.068 6.85938C125.596 6.93359 125.17 7.06641 124.791 7.25391C124.791 7.25781 124.787 7.25781 124.783 7.25781C124.729 7.28906 124.67 7.32031 124.615 7.35156C124.604 7.35547 124.596 7.36328 124.584 7.37109C124.537 7.39844 124.49 7.42578 124.443 7.45703C124.424 7.46875 124.408 7.48438 124.393 7.49609C124.354 7.51953 124.318 7.54688 124.279 7.57422C124.252 7.59766 124.225 7.62109 124.197 7.64063C124.174 7.66016 124.15 7.67969 124.127 7.69922C124.084 7.73828 124.045 7.77344 124.006 7.8125C123.998 7.82031 123.99 7.82813 123.982 7.83594C123.936 7.88672 123.889 7.93359 123.842 7.98438C123.834 7.99609 123.826 8.00781 123.818 8.01563C123.779 8.05859 123.74 8.10156 123.705 8.14453C123.693 8.16406 123.678 8.18359 123.666 8.20313C123.635 8.24219 123.607 8.27734 123.58 8.31641C123.572 8.33203 123.565 8.34375 123.553 8.35547C123.522 8.40234 123.49 8.44922 123.463 8.49609C123.459 8.50391 123.455 8.50781 123.451 8.51563C123.197 8.93359 123.018 9.42578 122.904 10.0195C122.904 10.0273 122.904 10.0391 122.9 10.0469C122.885 10.1211 122.873 10.1992 122.861 10.2773C122.857 10.3008 122.854 10.3242 122.854 10.3477C122.842 10.4141 122.834 10.4805 122.826 10.5508C122.822 10.5898 122.818 10.6289 122.815 10.6719C122.807 10.7266 122.799 10.7773 122.795 10.8359C122.791 10.8945 122.787 10.9531 122.783 11.0156C122.779 11.0547 122.779 11.0938 122.775 11.1367C122.772 11.2188 122.768 11.3047 122.764 11.3906C122.764 11.4141 122.76 11.4297 122.76 11.4492C122.756 11.5586 122.756 11.6719 122.756 11.7813V13.3242H120.811C120.69 13.3203 120.568 13.3438 120.459 13.3828C120.107 13.5117 119.857 13.8438 119.857 14.2305C119.857 14.5938 120.037 14.9023 120.318 15.082C120.459 15.1719 120.623 15.2266 120.803 15.2344H120.811V15.2383H122.756V28.8633C122.752 28.8828 122.756 28.8984 122.756 28.918C122.756 28.9297 122.756 28.9414 122.756 28.9531C122.768 29.1719 122.857 29.3711 123.002 29.5234L123.006 29.5273C123.025 29.5469 123.049 29.5664 123.068 29.5859C123.072 29.5898 123.076 29.5898 123.08 29.5938C123.096 29.6094 123.115 29.6211 123.131 29.6328C123.139 29.6406 123.15 29.6484 123.158 29.6523C123.166 29.6602 123.174 29.6641 123.186 29.668C123.338 29.7656 123.518 29.8203 123.709 29.8203C123.74 29.8203 123.772 29.8164 123.799 29.8125C123.982 29.7969 124.15 29.7188 124.287 29.6055L124.291 29.6016C124.311 29.5859 124.326 29.5703 124.342 29.5508C124.346 29.5469 124.354 29.543 124.357 29.5391C124.373 29.5234 124.385 29.5078 124.397 29.4961C124.545 29.3164 124.627 29.0938 124.615 28.8633V15.2383H126.709V15.2344H126.717C127.272 15.207 127.678 14.7734 127.662 14.2344C127.662 14.2305 127.662 14.2305 127.662 14.2266C127.666 14.207 127.662 14.1875 127.662 14.168C127.662 14.1602 127.662 14.1523 127.662 14.1484C127.647 13.9414 127.557 13.7539 127.416 13.6094C127.416 13.6094 127.416 13.6094 127.416 13.6055C127.412 13.6055 127.412 13.6055 127.412 13.6055C127.393 13.5859 127.377 13.5703 127.357 13.5547C127.35 13.5469 127.342 13.543 127.338 13.5352C127.322 13.5234 127.311 13.5156 127.295 13.5039C127.283 13.4961 127.268 13.4844 127.256 13.4766C127.248 13.4727 127.236 13.4648 127.229 13.4609C127.209 13.4492 127.19 13.4375 127.17 13.4297C127.166 13.4258 127.158 13.4219 127.154 13.4219C127.131 13.4102 127.107 13.3984 127.084 13.3906C127.08 13.3867 127.076 13.3867 127.068 13.3828C127.045 13.375 127.022 13.3672 126.998 13.3594C126.99 13.3594 126.982 13.3555 126.975 13.3555C126.951 13.3516 126.932 13.3438 126.908 13.3398C126.897 13.3398 126.885 13.3398 126.873 13.3359C126.857 13.332 126.838 13.332 126.818 13.3281C126.803 13.3281 126.787 13.3281 126.775 13.3281C126.764 13.3281 126.752 13.3242 126.74 13.3242C126.729 13.3242 126.713 13.3242 126.709 13.3242H124.615V11.7852C124.615 11.7734 124.615 11.7617 124.615 11.7539C124.619 11.6758 124.619 11.5977 124.623 11.5234C124.623 11.5039 124.623 11.4805 124.627 11.4609C124.627 11.3945 124.631 11.3281 124.635 11.2656C124.635 11.2539 124.639 11.2383 124.639 11.2266C124.643 11.1523 124.65 11.0781 124.658 11.0078C124.732 10.2461 124.897 9.76563 125.068 9.47266C125.072 9.46484 125.072 9.46094 125.076 9.45313C125.088 9.43359 125.104 9.41406 125.115 9.39453C125.123 9.37891 125.135 9.36328 125.147 9.34766C125.15 9.33984 125.158 9.32422 125.166 9.31641C125.186 9.28906 125.205 9.26563 125.229 9.24219C125.475 8.96484 125.857 8.79688 126.412 8.73047C126.42 8.73047 126.424 8.72656 126.436 8.72656C126.467 8.72266 126.502 8.71875 126.533 8.71875C126.549 8.71484 126.568 8.71484 126.584 8.71094C126.615 8.71094 126.643 8.70703 126.674 8.70703C126.697 8.70703 126.717 8.70313 126.744 8.70313C126.772 8.69922 126.799 8.69922 126.826 8.69922C126.854 8.69922 126.881 8.69531 126.908 8.69531C126.936 8.69531 126.963 8.69531 126.99 8.69531C127.029 8.69531 127.068 8.69531 127.107 8.69531H127.111C127.143 8.69531 127.17 8.69141 127.201 8.6875C127.236 8.69141 127.272 8.69531 127.307 8.69531H127.561C128.084 8.69531 128.514 8.26563 128.514 7.73828C128.514 7.21094 128.084 6.78516 127.561 6.78516Z" fill="#29B5E8"/>
<path d="M132.6 6.8125C132.6 6.8125 132.596 6.80859 132.592 6.80859C132.572 6.80078 132.557 6.79297 132.533 6.78906C132.525 6.78516 132.514 6.78125 132.502 6.77734C132.486 6.77344 132.471 6.76953 132.455 6.76562C132.44 6.76172 132.424 6.75391 132.412 6.75391C132.393 6.75 132.377 6.74609 132.357 6.74609C132.342 6.74219 132.33 6.74219 132.315 6.73828C132.283 6.73437 132.248 6.73438 132.217 6.73438C131.709 6.73438 131.279 7.16016 131.279 7.66797V28.832C131.279 29.3438 131.709 29.7695 132.217 29.7695C132.248 29.7695 132.283 29.7695 132.315 29.7656C132.318 29.7656 132.326 29.7617 132.33 29.7617C132.357 29.7578 132.385 29.7539 132.412 29.75C132.416 29.75 132.424 29.7461 132.432 29.7461C132.455 29.7383 132.479 29.7344 132.502 29.7266C132.506 29.7266 132.51 29.7266 132.514 29.7227C132.873 29.6094 133.139 29.3047 133.178 28.9297C133.182 28.8984 133.186 28.8672 133.186 28.832V7.66797C133.186 7.63672 133.182 7.60547 133.178 7.57422C133.143 7.23047 132.916 6.94531 132.6 6.8125Z" fill="#29B5E8"/>
<path d="M60.877 24.7891C60.8692 24.7344 60.8692 24.6836 60.8614 24.6328C60.8575 24.5938 60.8536 24.5586 60.8497 24.5234C60.8419 24.4805 60.838 24.4414 60.8302 24.3984C60.8223 24.3594 60.8145 24.3203 60.8067 24.2773C60.8028 24.2461 60.795 24.2109 60.7872 24.1797C60.7755 24.1328 60.7677 24.0898 60.7559 24.043C60.7481 24.0195 60.7403 23.9922 60.7325 23.9688C60.7208 23.918 60.7052 23.8711 60.6856 23.8242C60.6817 23.8047 60.6739 23.7852 60.67 23.7695C60.6505 23.7148 60.6309 23.6641 60.6075 23.6094C60.6036 23.6016 60.5997 23.5898 60.5958 23.5781C60.5684 23.5234 60.545 23.4648 60.5177 23.4102C60.5137 23.4062 60.5137 23.4023 60.5098 23.3984C60.2872 22.9492 59.9708 22.5742 59.5841 22.2578C59.5841 22.2539 59.5841 22.2539 59.5802 22.2539C59.5255 22.2109 59.4708 22.1641 59.4122 22.1211C59.4122 22.1211 59.4083 22.1172 59.4044 22.1133C59.4005 22.1133 59.3966 22.1094 59.3927 22.1055C59.3575 22.082 59.3223 22.0547 59.2911 22.0312C58.8106 21.6914 58.2794 21.4219 57.5059 21.125C57.4942 21.1211 57.4825 21.1172 57.4708 21.1133C57.4591 21.1055 57.4434 21.1016 57.4317 21.0938C56.9942 20.9297 56.5411 20.7734 56.0763 20.6211C56.0763 20.6211 56.0762 20.6211 56.0723 20.6211C56.0723 20.6211 56.0684 20.6211 56.0684 20.6172C56.0606 20.6172 56.0528 20.6133 56.0411 20.6094C55.9981 20.5938 55.9513 20.5781 55.8888 20.5586C55.8575 20.5508 55.8341 20.543 55.8106 20.5352C55.6544 20.4805 55.4942 20.4297 55.3341 20.375C55.2208 20.3359 55.0997 20.2969 54.9552 20.25C54.9161 20.2383 54.8223 20.207 54.7442 20.1836C54.7403 20.1836 54.7403 20.1797 54.7364 20.1797C54.6895 20.1641 54.6427 20.1484 54.5919 20.1328C54.2013 20.0078 53.8809 19.8984 53.6075 19.7969C53.1622 19.6328 52.7559 19.457 52.4239 19.2461C52.4161 19.2422 52.4083 19.2383 52.4044 19.2344C51.9513 18.9453 51.6387 18.5898 51.5645 18.125L51.5606 18.1211C51.5567 18.0898 51.5528 18.0547 51.5528 18.0234C51.5489 18.0156 51.5489 18.0117 51.5489 18.0078C51.545 17.9688 51.545 17.9336 51.545 17.8945C51.545 17.8398 51.5489 17.7852 51.5528 17.7344C51.5528 17.7188 51.5528 17.707 51.5567 17.6953C51.5606 17.6523 51.5645 17.6133 51.5684 17.5742C51.5723 17.5625 51.5723 17.5508 51.5763 17.5391C51.5841 17.4961 51.5919 17.457 51.5997 17.4141C51.6036 17.4102 51.6036 17.4023 51.6075 17.3945C51.6192 17.3477 51.6309 17.3047 51.6466 17.2617C51.6466 17.2578 51.6466 17.2578 51.6466 17.2578C51.8497 16.6523 52.3302 16.2031 52.8966 15.8867C52.9356 15.8672 52.9747 15.8477 53.0098 15.8281C53.0489 15.8086 53.0841 15.7891 53.1192 15.7734C53.1778 15.7461 53.2364 15.7187 53.295 15.6953C53.3302 15.6797 53.3614 15.6641 53.3966 15.6523C53.4591 15.6289 53.5216 15.6055 53.5841 15.582C53.6153 15.5703 53.6505 15.5586 53.6856 15.5469C53.7481 15.5273 53.8067 15.5078 53.8692 15.4922C53.9083 15.4805 53.9434 15.4688 53.9825 15.4609C54.0411 15.4453 54.0997 15.4336 54.1544 15.418C54.1934 15.4102 54.2325 15.4023 54.2716 15.3945C54.3341 15.3828 54.3927 15.3711 54.4473 15.3633C54.4825 15.3594 54.5137 15.3555 54.5489 15.3477C54.6153 15.3398 54.6856 15.332 54.7559 15.3281C54.7716 15.3242 54.7872 15.3242 54.8067 15.3203C54.8927 15.3164 54.9786 15.3125 55.0606 15.3125C55.1583 15.3125 55.2559 15.3164 55.3497 15.3203C55.3653 15.3203 55.3809 15.3203 55.3927 15.3203C56.0841 15.3633 56.6427 15.5313 57.1036 15.7539C57.1387 15.7695 57.1739 15.7891 57.2091 15.8047C57.2286 15.8164 57.2481 15.8281 57.2677 15.8359C57.3106 15.8594 57.3536 15.8828 57.4005 15.9102C57.4083 15.9141 57.4161 15.918 57.4239 15.9219C57.4708 15.9492 57.5177 15.9805 57.5645 16.0078C57.5684 16.0117 57.5723 16.0117 57.5723 16.0117C57.6231 16.043 57.6739 16.0781 57.7247 16.1094C57.7247 16.1133 57.7286 16.1133 57.7286 16.1172C57.7794 16.1484 57.8263 16.1797 57.8731 16.2148C57.8927 16.2305 57.9083 16.2422 57.9278 16.2539C58.0372 16.3359 58.2091 16.4688 58.3653 16.5977C58.3848 16.6094 58.4005 16.6211 58.4122 16.6328C58.5294 16.7305 58.6388 16.8164 58.7442 16.8945C58.7638 16.9102 58.7794 16.9219 58.7911 16.9297C58.795 16.9336 58.7989 16.9375 58.8028 16.9375C58.8145 16.9453 58.8263 16.9531 58.838 16.9609C58.8653 16.9805 58.8966 17 58.9239 17.0195C58.9356 17.0273 58.9473 17.0313 58.9591 17.0391C58.9864 17.0547 59.0137 17.0703 59.0411 17.0859C59.0528 17.0898 59.0606 17.0938 59.0723 17.0977C59.1036 17.1133 59.1309 17.125 59.1622 17.1367C59.17 17.1406 59.1739 17.1406 59.1817 17.1445C59.2169 17.1563 59.252 17.168 59.2872 17.1719C59.2872 17.1719 59.2872 17.1719 59.2911 17.1758C59.3692 17.1875 59.4434 17.1914 59.5216 17.1719C59.5294 17.1719 59.5372 17.168 59.545 17.168C59.5645 17.1641 59.588 17.1562 59.6075 17.1523C59.6153 17.1484 59.6192 17.1445 59.627 17.1406C59.6348 17.1406 59.6427 17.1367 59.6505 17.1328C59.6817 17.1172 59.713 17.1016 59.7442 17.082C59.752 17.082 59.7559 17.0781 59.7598 17.0742C59.795 17.0508 59.8263 17.0273 59.8575 17C59.8614 16.9961 59.8614 16.9961 59.8614 16.9961C59.8887 16.9727 59.9122 16.9453 59.9356 16.918C59.9513 16.8984 59.9669 16.875 59.9786 16.8516C59.9825 16.8477 59.9864 16.8437 59.9864 16.8398C60.1505 16.5664 60.0567 16.207 59.7677 15.8164C59.7637 15.8086 59.7598 15.8008 59.752 15.793C59.7403 15.7773 59.7325 15.7656 59.7208 15.75C59.0567 14.8906 57.545 13.9492 56.1427 13.6484C56.1348 13.6484 56.127 13.6484 56.1192 13.6445C56.0606 13.6328 55.9981 13.6211 55.9395 13.6094C55.9239 13.6094 55.9044 13.6055 55.8888 13.6016C55.838 13.5937 55.7872 13.5859 55.7364 13.582C55.7169 13.5781 55.6973 13.5742 55.6778 13.5742C55.6309 13.5703 55.5802 13.5664 55.5333 13.5625C55.5137 13.5586 55.4942 13.5586 55.4786 13.5547C55.4122 13.5547 55.3497 13.5508 55.2872 13.5508C55.1856 13.5508 55.0841 13.5508 54.9864 13.5547C54.9317 13.5547 54.877 13.5586 54.8184 13.5625C54.7794 13.5664 54.7325 13.5664 54.6934 13.5664C54.6153 13.5742 54.5411 13.5781 54.4669 13.5859C54.4473 13.5859 54.4239 13.5859 54.4044 13.5898C54.3184 13.5977 54.2325 13.6055 54.1505 13.6172C54.1388 13.6172 54.1309 13.6172 54.1231 13.6172C54.0333 13.6289 53.9473 13.6406 53.8614 13.6562C53.8575 13.6562 53.8497 13.6562 53.8458 13.6562C53.7598 13.668 53.6739 13.6836 53.5919 13.6992C53.588 13.6992 53.5841 13.7031 53.5763 13.7031C53.4005 13.7344 53.2286 13.7734 53.0645 13.8164C53.0606 13.8164 53.0606 13.8203 53.0606 13.8203C52.9786 13.8398 52.8966 13.8633 52.8145 13.8867C52.7364 13.9102 52.6622 13.9375 52.5919 13.9609C52.5841 13.9609 52.5802 13.9648 52.5723 13.9648C52.502 13.9922 52.4317 14.0156 52.3614 14.043C52.3536 14.0469 52.3458 14.0508 52.3419 14.0508C52.2716 14.0781 52.2091 14.1055 52.1427 14.1367C52.1348 14.1406 52.1231 14.1406 52.1153 14.1484C52.0567 14.1719 51.9942 14.2031 51.9395 14.2305C51.9239 14.2383 51.9122 14.2422 51.9005 14.25C51.8419 14.2773 51.7872 14.3047 51.7325 14.3359C51.7169 14.3438 51.7052 14.3516 51.6895 14.3594C51.6387 14.3867 51.588 14.418 51.5372 14.4492C51.5216 14.457 51.5059 14.4648 51.4903 14.4766C51.4239 14.5156 51.3614 14.5586 51.2989 14.5977C51.2247 14.6523 51.1505 14.7031 51.0841 14.7578C51.0762 14.7578 51.0723 14.7617 51.0723 14.7656C50.7403 15.0117 50.4552 15.2734 50.2208 15.5781C50.213 15.5898 50.2012 15.6016 50.1934 15.6133C50.1661 15.6563 50.1348 15.6953 50.1075 15.7344C50.088 15.7656 50.0684 15.7969 50.0489 15.8281C50.0333 15.8516 50.0177 15.875 50.0059 15.8984C49.9747 15.9492 49.9473 16 49.92 16.0547C49.9161 16.0625 49.9122 16.0664 49.9083 16.0742C49.6973 16.4922 49.5763 16.9727 49.5294 17.5547C49.5294 17.5625 49.5294 17.5703 49.5255 17.5781C49.5216 17.6797 49.5137 17.7812 49.5098 17.8906C49.5098 17.9727 49.5098 18.0547 49.5138 18.1367C49.5138 18.1484 49.5138 18.1602 49.5138 18.1719C49.5567 19.2891 50.0645 20.1289 50.9825 20.7812C50.9903 20.7852 50.9981 20.793 51.0059 20.7969C51.045 20.8242 51.0841 20.8516 51.1231 20.8789C51.1505 20.8984 51.1817 20.9141 51.2091 20.9336C51.2169 20.9414 51.2286 20.9453 51.2364 20.9492C52.1427 21.5234 53.252 21.8516 54.1778 22.1133C54.6309 22.2461 55.0372 22.3594 55.1583 22.3945C55.1856 22.4023 55.213 22.4102 55.2364 22.4219C55.7911 22.6055 56.2169 22.7539 56.5684 22.8945C56.5958 22.9023 56.6192 22.9141 56.6466 22.9219C56.6544 22.9258 56.6661 22.9297 56.6778 22.9375C56.877 23.0195 57.0723 23.1055 57.2598 23.1992C57.4161 23.2773 57.5606 23.3594 57.7052 23.4453C58.0762 23.6758 58.3614 23.9258 58.5528 24.1992C58.5606 24.207 58.5645 24.2148 58.5684 24.2227C58.588 24.2461 58.6036 24.2695 58.6153 24.2969C58.627 24.3125 58.6348 24.3242 58.6427 24.3398C58.6544 24.3594 58.6661 24.3789 58.6739 24.3984C58.6856 24.418 58.6934 24.4414 58.7052 24.4609C58.713 24.4766 58.7208 24.4922 58.7286 24.5078C58.7364 24.5313 58.7481 24.5547 58.7559 24.582C58.7598 24.5938 58.7677 24.6094 58.7716 24.625C58.7794 24.6523 58.7872 24.6797 58.795 24.707C58.7989 24.7188 58.8028 24.7305 58.8067 24.7461C58.8145 24.7734 58.8223 24.8047 58.8263 24.832C58.8302 24.8438 58.8341 24.8594 58.8341 24.8711C58.838 24.9023 58.8419 24.9336 58.8458 24.9648C58.8497 24.9766 58.8497 24.9883 58.8497 25C58.8536 25.0469 58.8575 25.0898 58.8575 25.1367C58.8575 25.207 58.8536 25.2734 58.8497 25.3398C58.8497 25.3594 58.8458 25.3789 58.8458 25.3984C58.8419 25.4492 58.8341 25.5 58.8223 25.5508C58.8223 25.5664 58.8184 25.582 58.8145 25.5977C58.7911 25.7344 58.752 25.8633 58.7013 25.9922C58.6973 25.9961 58.6973 26 58.6973 26.0039C58.67 26.0625 58.6427 26.125 58.6114 26.1797C58.6075 26.1875 58.6075 26.1914 58.6036 26.1953C58.5372 26.3203 58.4591 26.4414 58.3614 26.5547C58.3145 26.6133 58.2638 26.668 58.213 26.7227C58.2091 26.7227 58.2091 26.7227 58.2091 26.7266C58.1036 26.832 57.9864 26.9297 57.8653 27.0195C57.8614 27.0234 57.8575 27.0234 57.8575 27.0273C57.7989 27.0664 57.7403 27.1094 57.6817 27.1445C57.6739 27.1523 57.6661 27.1562 57.6583 27.1602C57.5567 27.2227 57.4473 27.2852 57.338 27.3398C57.2989 27.3594 57.2598 27.3789 57.2169 27.3984C57.1739 27.418 57.127 27.4414 57.0802 27.4609C57.0411 27.4766 57.0059 27.4922 56.9669 27.5078C56.8614 27.5469 56.7598 27.5859 56.6544 27.6211C56.6388 27.625 56.6231 27.6289 56.6075 27.6367C56.545 27.6562 56.4825 27.6719 56.42 27.6914C56.4044 27.6953 56.3848 27.7031 56.3692 27.707C56.1622 27.7617 55.9591 27.8047 55.7677 27.8359C55.7637 27.8359 55.7598 27.8359 55.7559 27.8359C55.6583 27.8516 55.5645 27.8633 55.4747 27.875C55.4395 27.8789 55.4083 27.8828 55.3731 27.8828C55.3419 27.8867 55.3106 27.8867 55.2755 27.8906C55.2013 27.8945 55.1231 27.8984 55.0528 27.8984C54.9083 27.8984 54.7677 27.8945 54.6309 27.8867C54.5762 27.8867 54.5216 27.8828 54.4669 27.8789C54.3927 27.8711 54.3145 27.8672 54.2442 27.8594C54.1778 27.8555 54.1075 27.8477 54.045 27.8398C53.9864 27.832 53.9317 27.8242 53.877 27.8164C53.7559 27.7969 53.6427 27.7813 53.5294 27.7578C53.4786 27.7461 53.4239 27.7383 53.3731 27.7266C53.3145 27.7109 53.2559 27.6992 53.1973 27.6836C53.1309 27.668 53.0684 27.6523 53.0059 27.6328C52.963 27.6211 52.9161 27.6094 52.877 27.5977C52.7716 27.5664 52.6661 27.5312 52.5645 27.4922C52.5411 27.4844 52.5177 27.4766 52.4942 27.4688C52.2677 27.3828 52.045 27.2891 51.8263 27.1797C51.8184 27.1758 51.8067 27.168 51.795 27.1641C51.6544 27.0938 51.4161 26.9609 51.1895 26.832C51.17 26.8203 51.1466 26.8086 51.127 26.7969C50.9669 26.7031 50.8302 26.625 50.7013 26.5625C50.6895 26.5547 50.6817 26.5508 50.6739 26.5469C50.6661 26.543 50.6583 26.5391 50.6544 26.5391C50.6192 26.5234 50.5919 26.5078 50.5606 26.4961C50.5489 26.4922 50.5411 26.4883 50.5333 26.4844C50.4512 26.4531 50.377 26.4297 50.3028 26.4219C50.2794 26.418 50.2559 26.418 50.2325 26.418C50.2247 26.4141 50.2169 26.4141 50.2091 26.4141C50.0606 26.4141 49.9317 26.4648 49.8106 26.5781C49.7833 26.6016 49.7598 26.625 49.7364 26.6523C49.7325 26.6602 49.7247 26.668 49.7169 26.6758C49.7013 26.6953 49.6895 26.7109 49.6778 26.7266C49.67 26.7383 49.6622 26.75 49.6583 26.7578C49.6466 26.7734 49.6348 26.7891 49.627 26.8047C49.6192 26.8164 49.6153 26.8281 49.6114 26.8398C49.6036 26.8555 49.5958 26.8711 49.588 26.8867C49.5841 26.8984 49.5802 26.9062 49.5763 26.918C49.5684 26.9375 49.5645 26.9531 49.5606 26.9688C49.5567 26.9805 49.5528 26.9883 49.5528 27C49.5489 27.0195 49.545 27.0391 49.5411 27.0586C49.5411 27.0664 49.5372 27.0742 49.5372 27.082C49.5333 27.1094 49.5333 27.1328 49.5333 27.1562C49.5333 27.1602 49.5333 27.1641 49.5333 27.168C49.5333 27.1992 49.5372 27.2266 49.545 27.2578C49.545 27.2617 49.545 27.2695 49.545 27.2734C49.5528 27.2969 49.5567 27.3242 49.5645 27.3477C49.5684 27.3594 49.5723 27.3711 49.5763 27.3828C49.5841 27.4023 49.588 27.4258 49.5997 27.4453C49.6036 27.457 49.6075 27.4648 49.6114 27.4727C49.6622 27.5898 49.7442 27.7109 49.8497 27.8281C49.963 27.9531 50.1075 28.0781 50.2755 28.207C50.2794 28.207 50.2794 28.207 50.2794 28.2109C50.3263 28.2422 50.3731 28.2773 50.4239 28.3125C50.4356 28.3203 50.4434 28.3281 50.4552 28.332C50.5919 28.4258 50.7364 28.5156 50.9005 28.6094C50.9395 28.6328 50.9786 28.6562 51.0177 28.6758C51.0567 28.6992 51.0958 28.7188 51.1348 28.7383C51.1817 28.7656 51.2364 28.793 51.2872 28.8203C51.3223 28.8359 51.3536 28.8555 51.3888 28.8711C51.4669 28.9102 51.5489 28.9492 51.6309 28.9883C51.6427 28.9961 51.6505 29 51.6622 29.0039C51.752 29.0469 51.8419 29.0859 51.9317 29.1211C51.9708 29.1367 52.0059 29.1523 52.045 29.168C52.0528 29.1719 52.0606 29.1758 52.0684 29.1758C52.9044 29.5039 53.9356 29.7227 54.8458 29.7617C54.9122 29.7656 54.9825 29.7695 55.0489 29.7695H55.0528C55.0841 29.7695 55.1114 29.7695 55.1427 29.7656C55.213 29.7656 55.2833 29.7656 55.3536 29.7656C55.3614 29.7656 55.3692 29.7656 55.377 29.7617C56.8575 29.7148 58.0723 29.332 59.1075 28.5742C59.1075 28.5703 59.1075 28.5703 59.1075 28.5703C60.2559 27.7031 60.8888 26.4805 60.8888 25.1328C60.8888 25.0469 60.8848 24.9609 60.8809 24.8789C60.8809 24.8477 60.877 24.8164 60.877 24.7891Z" fill="#29B5E8"/>
<path d="M70.4278 13.582C70.4239 13.582 70.42 13.582 70.4161 13.582C68.5958 13.582 66.877 14.3242 65.6348 15.6367V14.5195C65.6348 14.0039 65.2364 13.582 64.7325 13.582C64.6973 13.582 64.6661 13.5859 64.6348 13.5859C64.4122 13.6094 64.2169 13.707 64.0723 13.8516C64.0684 13.8516 64.0684 13.8516 64.0645 13.8555C64.0528 13.8711 64.0372 13.8867 64.0255 13.9023C64.0177 13.9062 64.0098 13.9141 64.0059 13.9219C63.9942 13.9336 63.9864 13.9453 63.9786 13.957C63.9708 13.9688 63.963 13.9805 63.9513 13.9922C63.9473 14 63.9434 14.0078 63.9395 14.0156C63.9278 14.0352 63.9161 14.0547 63.9044 14.0703C63.9044 14.0742 63.9044 14.0781 63.9005 14.082C63.8888 14.1055 63.877 14.1289 63.8653 14.1523C63.8458 14.2109 63.8262 14.2695 63.8145 14.3281C63.8145 14.332 63.8145 14.3359 63.8106 14.3359C63.8067 14.3672 63.8028 14.3945 63.7989 14.4219C63.7989 14.4531 63.795 14.4844 63.795 14.5195V29.0273L63.7833 29.0898L63.8302 29.1289C63.8302 29.1484 63.8341 29.1758 63.8458 29.2031C63.8458 29.207 63.8497 29.2148 63.8497 29.2188C63.8575 29.2383 63.8692 29.2617 63.8888 29.2812C64.0098 29.5117 64.2325 29.6875 64.4942 29.7656L64.5138 29.7695H64.7325C64.7677 29.7695 64.8028 29.7695 64.838 29.7656C64.8614 29.7617 64.8848 29.7539 64.9083 29.75C64.92 29.75 64.9278 29.75 64.9395 29.7461C64.9708 29.7383 65.002 29.7305 65.0333 29.7188C65.0333 29.7188 65.0333 29.7188 65.0372 29.7188C65.2013 29.6602 65.3419 29.5586 65.4356 29.4219C65.4395 29.418 65.4434 29.4141 65.4473 29.4102C65.5098 29.3438 65.545 29.2734 65.5802 29.1758C65.5841 29.1641 65.588 29.1562 65.588 29.1484C65.5919 29.1445 65.5919 29.1445 65.5919 29.1406C65.6075 29.0938 65.6192 29.0469 65.6309 29L65.6348 28.9844V20.2031C65.6973 17.5859 67.838 15.457 70.4083 15.4531C70.4122 15.4531 70.4122 15.4531 70.4161 15.4531C73.0333 15.4531 75.1622 17.582 75.1622 20.1992V28.832C75.1622 28.8672 75.1661 28.8984 75.17 28.9297C75.1895 29.1562 75.2872 29.3516 75.4317 29.4961C75.4317 29.4961 75.4356 29.4961 75.4356 29.5C75.4513 29.5156 75.4669 29.5273 75.4825 29.543C75.4903 29.5508 75.4942 29.5547 75.502 29.5586C75.5138 29.5703 75.5255 29.5781 75.5372 29.5859C75.5489 29.5977 75.5606 29.6055 75.5723 29.6133C75.5841 29.6172 75.5919 29.6211 75.5997 29.6289C75.6153 29.6406 75.6348 29.6484 75.6505 29.6602C75.6544 29.6602 75.6583 29.6641 75.6661 29.6641C75.6856 29.6758 75.7091 29.6875 75.7325 29.6992H75.7364C75.7911 29.7227 75.8497 29.7383 75.9083 29.75C75.9161 29.75 75.92 29.7539 75.9239 29.7539C75.9513 29.7578 75.9747 29.7617 76.002 29.7656C76.0333 29.7695 76.0645 29.7695 76.0997 29.7695C76.1309 29.7695 76.1622 29.7695 76.1934 29.7656C76.2208 29.7617 76.2481 29.7578 76.2716 29.7539C76.2755 29.7539 76.2833 29.75 76.2872 29.75C76.3497 29.7383 76.4044 29.7227 76.463 29.6992C76.4864 29.6875 76.5098 29.6758 76.5333 29.6641C76.5372 29.6641 76.5411 29.6602 76.545 29.6602C76.5645 29.6484 76.5802 29.6406 76.5997 29.6289C76.6075 29.6211 76.6153 29.6172 76.6231 29.6133C76.6348 29.6055 76.6466 29.5977 76.6583 29.5859C76.67 29.5781 76.6856 29.5703 76.6973 29.5586C76.7013 29.5547 76.7091 29.5508 76.713 29.543C76.7286 29.5273 76.7481 29.5156 76.7638 29.5C76.7638 29.4961 76.7638 29.4961 76.7638 29.4961C76.9122 29.3516 77.0098 29.1562 77.0294 28.9297C77.0333 28.8984 77.0333 28.8672 77.0333 28.832V20.1992C77.0333 16.5547 74.0723 13.5898 70.4278 13.582Z" fill="#29B5E8"/>
<path d="M87.2794 13.5508C91.5216 13.5508 94.9708 17.1875 94.9708 21.6602C94.9708 26.1328 91.5216 29.7695 87.2794 29.7695C87.1466 29.7695 87.0177 29.7656 86.8887 29.7578C86.8692 29.7578 86.8536 29.7578 86.8341 29.7539C86.7208 29.75 86.6075 29.7383 86.4981 29.7266C86.4942 29.7266 86.4903 29.7266 86.4864 29.7266C84.8106 29.543 83.2442 28.7773 81.9981 27.5234C81.9473 27.4727 81.8927 27.4219 81.8458 27.3672C81.8419 27.3672 81.8419 27.3633 81.838 27.3633C81.8106 27.3359 81.7872 27.3047 81.7598 27.2734C81.7012 27.2109 81.6427 27.1445 81.5841 27.0781C81.5372 27.0273 81.4942 26.9688 81.4473 26.9141C81.4161 26.8711 81.3809 26.8281 81.3458 26.7852C81.2755 26.6992 81.2091 26.6094 81.1466 26.5195C81.1387 26.5078 81.1309 26.4961 81.1231 26.4844C80.3614 25.418 79.8653 24.1875 79.6778 22.8828C79.6583 22.7617 79.6466 22.6406 79.6348 22.5195C79.6309 22.5078 79.6309 22.4922 79.627 22.4766C79.6153 22.3633 79.6075 22.2539 79.6036 22.1406C79.5997 22.1172 79.5997 22.0938 79.5997 22.0664C79.5919 21.9336 79.588 21.7969 79.588 21.6602C79.588 21.5234 79.5919 21.3867 79.5997 21.2539C79.5997 21.2266 79.5997 21.2031 79.6036 21.1797C79.6075 21.0664 79.6153 20.9531 79.627 20.8438C79.6309 20.8281 79.6309 20.8125 79.6348 20.8008C79.6466 20.6797 79.6583 20.5586 79.6778 20.4375C79.8653 19.1328 80.3614 17.9023 81.1231 16.8359C81.127 16.8242 81.1348 16.8125 81.1427 16.8047C81.2091 16.7109 81.2755 16.6211 81.3458 16.5312C81.377 16.4922 81.4122 16.4531 81.4434 16.4102C81.4903 16.3516 81.5372 16.2969 81.5841 16.2383C81.6387 16.1758 81.6934 16.1172 81.752 16.0547C81.7794 16.0234 81.8106 15.9883 81.838 15.957C81.8419 15.957 81.8419 15.9531 81.8458 15.9531C81.8887 15.9023 81.9395 15.8555 81.9864 15.8086C83.2325 14.5508 84.8028 13.7773 86.4864 13.5938C86.4903 13.5938 86.4942 13.5938 86.4981 13.5938C86.6075 13.582 86.7208 13.5742 86.8341 13.5664C86.8536 13.5664 86.8692 13.5625 86.8887 13.5625C87.0177 13.5547 87.1466 13.5508 87.2794 13.5508ZM93.0684 21.0234C93.0684 21.0195 93.0684 21.0195 93.0684 21.0156C92.9317 19.6094 92.3536 18.3398 91.4903 17.3594C91.4512 17.3164 91.4161 17.2734 91.377 17.2305C91.3536 17.207 91.3302 17.1836 91.3067 17.1602C91.2598 17.1133 91.2169 17.0664 91.17 17.0195C91.127 16.9766 91.0802 16.9375 91.0372 16.8984C91.0098 16.875 90.9864 16.8477 90.9591 16.8242C90.8887 16.7617 90.8184 16.7031 90.7481 16.6445C90.7481 16.6445 90.7442 16.6445 90.7442 16.6406C89.9278 15.9805 88.9473 15.5469 87.8927 15.4258C87.8809 15.4258 87.8731 15.4219 87.8653 15.4219C87.7833 15.4102 87.7052 15.4062 87.6231 15.4023C87.6036 15.3984 87.588 15.3984 87.5723 15.3984C87.4747 15.3906 87.377 15.3906 87.2794 15.3906C87.1817 15.3906 87.0841 15.3906 86.9864 15.3984C86.9708 15.3984 86.9552 15.3984 86.9356 15.4023C86.8536 15.4062 86.7755 15.4102 86.6934 15.4219C86.6856 15.4219 86.6778 15.4258 86.6661 15.4258C85.6114 15.5469 84.6309 15.9805 83.8145 16.6406C83.8145 16.6445 83.8106 16.6445 83.8106 16.6445C83.7403 16.7031 83.67 16.7617 83.5997 16.8242C83.5723 16.8477 83.5489 16.8711 83.5216 16.8945C83.4786 16.9375 83.4317 16.9766 83.3887 17.0195C83.3458 17.0625 83.3028 17.1094 83.2559 17.1562C83.2325 17.1797 83.2091 17.2031 83.1817 17.2305C83.1466 17.2695 83.1114 17.3125 83.0723 17.3555C82.2091 18.3359 81.627 19.6094 81.4903 21.0156C81.4903 21.0195 81.4903 21.0195 81.4903 21.0234C81.4825 21.1133 81.4747 21.2031 81.4708 21.2969C81.4708 21.3125 81.4669 21.3281 81.4669 21.3438C81.463 21.4492 81.4591 21.5547 81.4591 21.6602C81.4591 25.0938 84.0997 27.8984 87.2794 27.8984C90.4591 27.8984 93.0997 25.0938 93.0997 21.6602C93.0997 21.5547 93.0958 21.4492 93.0919 21.3438C93.0919 21.3281 93.088 21.3125 93.088 21.2969C93.0841 21.2031 93.0762 21.1133 93.0684 21.0234Z" fill="#29B5E8"/>
<path d="M117.576 13.9531C117.568 13.9453 117.565 13.9375 117.557 13.9297C117.463 13.8125 117.338 13.7188 117.197 13.6602C117.197 13.6602 117.197 13.6602 117.193 13.6602C117.178 13.6484 117.158 13.6445 117.143 13.6367C117.135 13.6367 117.127 13.6328 117.115 13.6289C116.99 13.5859 116.854 13.5781 116.721 13.5977H116.717C116.447 13.6406 116.19 13.8047 116.045 14.0469C116.045 14.0469 116.045 14.0469 116.041 14.0469C116.022 14.0859 115.998 14.125 115.982 14.1641L115.979 14.168V14.1719L111.502 26.4258L107.986 18.0586C107.951 17.9805 107.904 17.9102 107.85 17.8438C107.658 17.6211 107.365 17.4805 107.065 17.4805C107.018 17.4805 106.975 17.4805 106.928 17.4922C106.924 17.4922 106.92 17.4922 106.912 17.4922C106.6 17.5469 106.307 17.7656 106.174 18.0586C106.174 18.0625 106.174 18.0625 106.174 18.0625L102.658 26.4297L100.955 21.8008L98.1505 14.1719C98.1348 14.1289 98.1192 14.0938 98.0997 14.0547C98.0958 14.0508 98.0958 14.0508 98.0919 14.0469C98.0059 13.8867 97.8692 13.7617 97.7051 13.6836C97.7051 13.6836 97.7012 13.6836 97.7012 13.6797C97.6192 13.6445 97.5333 13.6172 97.4434 13.6016C97.4356 13.6016 97.4317 13.6016 97.4239 13.5977C97.3809 13.5938 97.3341 13.5898 97.2911 13.5898H97.2872C97.2755 13.5898 97.2676 13.5898 97.2598 13.5898C97.2403 13.5898 97.2208 13.5898 97.2012 13.5937C97.1895 13.5937 97.1739 13.5977 97.1622 13.5977C97.1426 13.6016 97.127 13.6016 97.1114 13.6055C97.0997 13.6094 97.088 13.6094 97.0762 13.6133C97.0567 13.6172 97.0372 13.6211 97.0176 13.6289C97.0098 13.6328 97.002 13.6328 96.9942 13.6367C96.9747 13.6445 96.9551 13.6484 96.9356 13.6602C96.9356 13.6602 96.9356 13.6602 96.9317 13.6602C96.7716 13.7305 96.6426 13.8516 96.5489 13.9922C96.545 14 96.5411 14.0039 96.5372 14.0117C96.5333 14.0195 96.5294 14.0273 96.5255 14.0352C96.4551 14.1523 96.4122 14.2891 96.3966 14.4258C96.3809 14.5703 96.4005 14.7227 96.4591 14.8633L99.7051 23.5859L101.787 29.1797C101.787 29.1797 101.787 29.1797 101.787 29.1836C101.873 29.3945 101.998 29.5391 102.17 29.6172C102.174 29.6211 102.182 29.625 102.186 29.6289C102.19 29.6328 102.193 29.6367 102.201 29.6406C102.201 29.6445 102.205 29.6445 102.209 29.6484C102.217 29.6523 102.221 29.6562 102.229 29.6641C102.232 29.6641 102.232 29.6641 102.236 29.6641C102.268 29.6836 102.307 29.6992 102.357 29.7031C102.361 29.7031 102.365 29.707 102.369 29.707C102.385 29.7109 102.4 29.7188 102.416 29.7227C102.424 29.7227 102.432 29.7266 102.44 29.7266C102.537 29.7578 102.6 29.7695 102.678 29.7695C102.721 29.7695 102.76 29.7656 102.803 29.7578C102.834 29.7539 102.869 29.7461 102.9 29.7344C102.908 29.7305 102.916 29.7305 102.924 29.7266C102.955 29.7188 102.986 29.707 103.018 29.6914C103.029 29.6875 103.041 29.6836 103.053 29.6758C103.072 29.6641 103.096 29.6523 103.119 29.6406C103.135 29.6289 103.154 29.6172 103.174 29.6055C103.186 29.5977 103.197 29.5859 103.209 29.5781C103.236 29.5586 103.26 29.5391 103.287 29.5156C103.291 29.5117 103.295 29.5078 103.299 29.5C103.326 29.4727 103.354 29.4453 103.381 29.4141C103.381 29.4102 103.385 29.4062 103.389 29.4023C103.412 29.3711 103.436 29.3359 103.455 29.3008C103.475 29.2617 103.494 29.2188 103.51 29.1758L103.514 29.1641L103.525 29.1484L103.537 29.1211L107.065 20.6992L110.623 29.1523C110.65 29.2383 110.693 29.3164 110.752 29.3906C110.76 29.4023 110.768 29.4102 110.775 29.4219C110.795 29.4453 110.815 29.4687 110.838 29.4922C110.85 29.5 110.861 29.5117 110.873 29.5195C110.893 29.5391 110.916 29.5586 110.94 29.5781C110.951 29.5859 110.959 29.5938 110.971 29.5977C110.998 29.6172 111.025 29.6367 111.053 29.6523C111.061 29.6562 111.068 29.6602 111.076 29.6641C111.107 29.6797 111.135 29.6953 111.17 29.707C111.178 29.7109 111.186 29.7148 111.197 29.7148C111.225 29.7266 111.252 29.7383 111.283 29.7461C111.322 29.7539 111.361 29.7617 111.397 29.7695H111.514C111.561 29.7695 111.604 29.7656 111.647 29.7578C111.658 29.7578 111.666 29.7578 111.678 29.7539C111.717 29.7461 111.752 29.7383 111.787 29.7266C111.799 29.7227 111.807 29.7188 111.815 29.7148C111.854 29.7031 111.893 29.6836 111.928 29.6641C111.932 29.6641 111.936 29.6602 111.94 29.6602C111.982 29.6328 112.025 29.6055 112.061 29.5781C112.217 29.4609 112.33 29.3086 112.408 29.1211V29.1172L114.607 23.1953L117.701 14.8633C117.822 14.5703 117.775 14.25 117.607 14C117.6 13.9844 117.588 13.9687 117.576 13.9531Z" fill="#29B5E8"/>
<path d="M167.252 14.2148C167.252 14.1992 167.248 14.1797 167.244 14.1641C167.244 14.1523 167.24 14.1406 167.236 14.1289C167.232 14.1094 167.229 14.0898 167.225 14.0742C167.221 14.0625 167.217 14.0508 167.213 14.043C167.209 14.0195 167.201 14 167.19 13.9805C167.19 13.9727 167.186 13.9688 167.182 13.9609C167.17 13.9336 167.158 13.9102 167.143 13.8867C167.143 13.8828 167.143 13.8828 167.143 13.8828C167.096 13.8008 167.037 13.7305 166.971 13.668C166.967 13.6641 166.967 13.6641 166.967 13.6641C166.963 13.6602 166.963 13.6602 166.963 13.6602C166.631 13.3281 166.162 13.2852 165.795 13.543C165.783 13.5508 165.775 13.5586 165.764 13.5625C165.748 13.5742 165.732 13.5859 165.717 13.5977C165.693 13.6211 165.67 13.6406 165.647 13.6641C165.647 13.6641 165.643 13.6641 165.643 13.668L156.49 22.5898V7.66797C156.49 7.63672 156.49 7.60547 156.486 7.57422C156.451 7.23047 156.221 6.94531 155.908 6.8125C155.904 6.8125 155.904 6.80859 155.9 6.80859C155.881 6.80078 155.861 6.79297 155.842 6.78906C155.834 6.78516 155.822 6.78125 155.811 6.77734C155.795 6.77344 155.779 6.76953 155.76 6.76562C155.748 6.76172 155.732 6.75781 155.717 6.75391C155.701 6.75 155.682 6.74609 155.666 6.74609C155.65 6.74219 155.639 6.74219 155.623 6.73828C155.588 6.73437 155.557 6.73438 155.525 6.73438C155.014 6.73438 154.588 7.16016 154.588 7.66797V28.832C154.588 29.3438 155.014 29.7695 155.525 29.7695C155.557 29.7695 155.592 29.7695 155.623 29.7656C155.627 29.7656 155.631 29.7617 155.639 29.7617C155.666 29.7578 155.693 29.7578 155.717 29.75C155.725 29.75 155.732 29.7461 155.74 29.7461C155.764 29.7383 155.787 29.7344 155.811 29.7266C155.815 29.7266 155.818 29.7227 155.822 29.7227C156.182 29.6094 156.447 29.3008 156.486 28.9297C156.49 28.8984 156.49 28.8672 156.49 28.832V25.2617L159.572 22.1836L165.561 29.4102C165.6 29.4727 165.643 29.5273 165.697 29.5703C165.709 29.582 165.717 29.5898 165.729 29.5977C165.744 29.6094 165.76 29.6211 165.775 29.6289C165.795 29.6445 165.815 29.6523 165.834 29.6641C165.842 29.668 165.854 29.6758 165.861 29.6797C165.889 29.6914 165.912 29.6992 165.94 29.7109C165.947 29.7148 165.955 29.7148 165.959 29.7188C165.99 29.7266 166.018 29.7344 166.049 29.7422C166.053 29.7422 166.061 29.7461 166.068 29.7461C166.1 29.7539 166.127 29.7578 166.162 29.7617C166.17 29.7617 166.178 29.7617 166.186 29.7656C166.225 29.7656 166.264 29.7695 166.307 29.7695C166.369 29.7695 166.428 29.7656 166.482 29.7578C166.486 29.7578 166.486 29.7578 166.486 29.7578C166.596 29.7422 166.697 29.707 166.791 29.6602C166.795 29.6602 166.795 29.6562 166.795 29.6562C166.838 29.6328 166.881 29.6055 166.924 29.5742L166.936 29.5625C167.291 29.207 167.346 28.7227 167.088 28.3203C167.065 28.2852 167.041 28.25 167.014 28.2148L160.932 20.8281L166.971 14.9922C167.131 14.8281 167.229 14.6289 167.252 14.4141C167.252 14.4102 167.252 14.4062 167.256 14.4023C167.256 14.3828 167.256 14.3594 167.256 14.3398C167.256 14.3281 167.26 14.3164 167.26 14.3086C167.26 14.3008 167.26 14.2969 167.26 14.293C167.26 14.2773 167.256 14.2656 167.256 14.25C167.256 14.2383 167.252 14.2266 167.252 14.2148Z" fill="#29B5E8"/>
</svg>
