<svg width="16" height="16" viewBox="0 0 16 16" fill="none" xmlns="http://www.w3.org/2000/svg">
  <path
    d="M13.7159 12.194L10.3385 10.2429C9.86398 9.96974 9.25722 10.1322 8.9826 10.6067C8.8762 10.7936 8.8345 10.9992 8.85463 11.1991V15.0122C8.85463 15.5571 9.29748 15.9999 9.84385 15.9999C10.3888 15.9999 10.8316 15.5571 10.8316 15.0122V12.8195L12.7238 13.9122C13.1983 14.1868 13.8065 14.0229 14.0797 13.5485C14.3543 13.074 14.1918 12.4672 13.7159 12.194Z"
    fill="white" />
  <path
    d="M5.31635 8.01305C5.3221 7.66078 5.13662 7.33296 4.83181 7.15611L1.45438 5.20643C1.30772 5.1216 1.1395 5.07703 0.971272 5.07703C0.624758 5.07703 0.302687 5.2625 0.13015 5.56157C-0.137284 6.02455 0.0223136 6.61836 0.48529 6.8858L2.43209 8.00873L0.48529 9.1331C0.260991 9.26251 0.0999555 9.47099 0.0338161 9.72117C-0.0337613 9.97135 0.000746288 10.233 0.13015 10.4573C0.302687 10.7564 0.624758 10.9419 0.969834 10.9419C1.1395 10.9419 1.30772 10.8973 1.45438 10.8125L4.83181 8.86279C5.13375 8.68738 5.31923 8.36243 5.31635 8.01305Z"
    fill="white" />
  <path
    d="M2.22104 3.82459L5.59846 5.77427C5.99242 6.00288 6.47841 5.92811 6.78897 5.62474C6.98596 5.44357 7.10817 5.18476 7.10817 4.8972V0.989217C7.10817 0.442847 6.66532 0 6.12039 0C5.57402 0 5.13117 0.442847 5.13117 0.989217V3.21352L3.21313 2.1064C2.73865 1.83178 2.13189 1.99425 1.85727 2.46873C1.58264 2.94321 1.74656 3.54997 2.22104 3.82459Z"
    fill="white" />
  <path
    d="M9.81532 8.1712C9.81532 8.24597 9.77219 8.34949 9.71899 8.40413L8.38038 9.74273C8.32718 9.79593 8.22222 9.83907 8.14746 9.83907H7.80669C7.73193 9.83907 7.62697 9.79593 7.57377 9.74273L6.23372 8.40413C6.18052 8.34949 6.13739 8.24597 6.13739 8.1712V7.83044C6.13739 7.75423 6.18052 7.65071 6.23372 7.59751L7.57377 6.25747C7.62697 6.20427 7.73193 6.16113 7.80669 6.16113H8.14746C8.22222 6.16113 8.32718 6.20427 8.38038 6.25747L9.71899 7.59751C9.77219 7.65071 9.81532 7.75423 9.81532 7.83044V8.1712ZM8.6205 8.00729V7.99291C8.6205 7.93827 8.58887 7.86207 8.55005 7.82181L8.15465 7.42785C8.11582 7.38759 8.03962 7.35596 7.98355 7.35596H7.96917C7.91453 7.35596 7.83833 7.38759 7.79807 7.42785L7.40411 7.82181C7.36528 7.86063 7.33365 7.93684 7.33365 7.99291V8.00729C7.33365 8.06336 7.36528 8.13957 7.40411 8.17839L7.79807 8.57379C7.83833 8.61261 7.91453 8.64424 7.96917 8.64424H7.98355C8.03962 8.64424 8.11582 8.61261 8.15465 8.57379L8.55005 8.17839C8.58887 8.13957 8.6205 8.06336 8.6205 8.00729Z"
    fill="white" />
  <path
    d="M10.3383 5.77427L13.7157 3.82459C14.1902 3.5514 14.3541 2.94321 14.0795 2.46873C13.8049 1.99425 13.1981 1.83178 12.7236 2.1064L10.8315 3.19914V0.989217C10.8315 0.442847 10.3886 0 9.8437 0C9.29733 0 8.85448 0.442847 8.85448 0.989217V4.81956C8.83579 5.01798 8.87461 5.22502 8.98245 5.41194C9.25707 5.88642 9.86383 6.04889 10.3383 5.77427Z"
    fill="white" />
  <path
    d="M6.27567 10.1279C6.05138 10.0847 5.81126 10.1207 5.59846 10.2429L2.22104 12.194C1.74656 12.4672 1.58264 13.0739 1.85727 13.5484C2.13189 14.0243 2.73865 14.1868 3.21313 13.9122L5.13117 12.8051V15.0121C5.13117 15.557 5.57402 15.9999 6.12039 15.9999C6.66532 15.9999 7.10817 15.557 7.10817 15.0121V11.1041C7.10817 10.611 6.74728 10.2026 6.27567 10.1279Z"
    fill="white" />
  <path
    d="M15.8266 5.5499C15.5535 5.07398 14.9453 4.91151 14.4708 5.18613L11.0933 7.13581C10.7698 7.32273 10.5916 7.66493 10.5973 8.01288C10.5944 8.35939 10.7727 8.69728 11.0933 8.88132L14.4708 10.8324C14.9453 11.1056 15.552 10.9431 15.8266 10.4687C16.1013 9.99419 15.9373 9.38743 15.4629 9.11281L13.5506 8.00857L15.4629 6.90432C15.9388 6.63114 16.1013 6.02438 15.8266 5.5499Z"
    fill="white" />
</svg>