<svg width="48" height="33" viewBox="0 0 48 33" fill="none" xmlns="http://www.w3.org/2000/svg">
<path d="M38.6233 32.4927H9.06684C4.17675 32.4927 0.204224 28.5201 0.204224 23.63C0.204224 19.6575 2.83818 16.2139 6.59481 15.1345C7.49078 12.7056 9.585 10.946 12.1002 10.4711C12.7695 4.58784 17.7783 0 23.8451 0C28.6704 0 33.0207 2.99019 34.8019 7.4053C39.9942 7.70756 44.1611 11.8636 44.5065 17.0452C46.4064 18.7292 47.4859 21.0932 47.4859 23.6408C47.4859 28.5093 43.5134 32.4927 38.6233 32.4927ZM13.5035 13.2777C11.4417 13.2777 9.67136 14.6811 9.19638 16.6997L8.98048 17.6497L8.01974 17.8224C5.20227 18.3297 3.16203 20.7694 3.16203 23.6193C3.16203 26.8793 5.81757 29.5349 9.07764 29.5349H38.6341C41.8941 29.5349 44.5497 26.8793 44.5497 23.6193C44.5497 21.7733 43.6861 20.0569 42.1856 18.9235L41.6027 18.4809V17.6281C41.6027 13.634 38.2887 10.3199 34.2082 10.3199L32.6969 10.3955L32.3622 9.28362C31.2612 5.54858 27.7636 2.93621 23.8667 2.93621C18.9766 2.93621 15.004 6.90874 15.004 11.7988V13.2777H13.5035Z" fill="#4D488C"/>
<path d="M25.3239 13.9147H22.3661V26.5771H25.3239V13.9147Z" fill="#4D488C"/>
<path d="M28.7136 20.2405L23.8451 15.372L18.9766 20.2405L16.8932 18.1463L23.8451 11.1943L30.797 18.1463L28.7136 20.2405Z" fill="#4D488C"/>
</svg>
